<svg width="20" height="20" viewBox="0 0 20 20" fill="none" xmlns="http://www.w3.org/2000/svg">
<path fill-rule="evenodd" clip-rule="evenodd" d="M18.75 4.4238C18.75 6.4524 17.1048 8.0976 15.0762 8.0976C13.0476 8.0976 11.4033 6.4524 11.4033 4.4238C11.4033 2.3952 13.0476 0.75 15.0762 0.75C17.1048 0.75 18.75 2.3952 18.75 4.4238Z" stroke="#00B7D5" stroke-width="1.5" stroke-linecap="round" stroke-linejoin="round"/>
<path fill-rule="evenodd" clip-rule="evenodd" d="M8.0967 4.4238C8.0967 6.4524 6.4524 8.0976 4.4229 8.0976C2.3952 8.0976 0.75 6.4524 0.75 4.4238C0.75 2.3952 2.3952 0.75 4.4229 0.75C6.4524 0.75 8.0967 2.3952 8.0967 4.4238Z" stroke="#00B7D5" stroke-width="1.5" stroke-linecap="round" stroke-linejoin="round"/>
<path fill-rule="evenodd" clip-rule="evenodd" d="M18.75 15.0117C18.75 17.0403 17.1048 18.6846 15.0762 18.6846C13.0476 18.6846 11.4033 17.0403 11.4033 15.0117C11.4033 12.9831 13.0476 11.3379 15.0762 11.3379C17.1048 11.3379 18.75 12.9831 18.75 15.0117Z" stroke="#00B7D5" stroke-width="1.5" stroke-linecap="round" stroke-linejoin="round"/>
<path fill-rule="evenodd" clip-rule="evenodd" d="M8.0967 15.0117C8.0967 17.0403 6.4524 18.6846 4.4229 18.6846C2.3952 18.6846 0.75 17.0403 0.75 15.0117C0.75 12.9831 2.3952 11.3379 4.4229 11.3379C6.4524 11.3379 8.0967 12.9831 8.0967 15.0117Z" stroke="#00B7D5" stroke-width="1.5" stroke-linecap="round" stroke-linejoin="round"/>
</svg>
