<svg width="21" height="21" viewBox="0 0 21 21" fill="none" xmlns="http://www.w3.org/2000/svg">
<path fill-rule="evenodd" clip-rule="evenodd" d="M10.4873 6.16309C10.9015 6.16309 11.2373 6.49887 11.2373 6.91309V14.0615C11.2373 14.4758 10.9015 14.8115 10.4873 14.8115C10.0731 14.8115 9.7373 14.4758 9.7373 14.0615V6.91309C9.7373 6.49887 10.0731 6.16309 10.4873 6.16309Z" fill="#5C6B73"/>
<path fill-rule="evenodd" clip-rule="evenodd" d="M6.15918 10.4873C6.15918 10.0731 6.49497 9.7373 6.90918 9.7373H14.065C14.4792 9.7373 14.815 10.0731 14.815 10.4873C14.815 10.9015 14.4792 11.2373 14.065 11.2373H6.90918C6.49497 11.2373 6.15918 10.9015 6.15918 10.4873Z" fill="#5C6B73"/>
<path fill-rule="evenodd" clip-rule="evenodd" d="M3.41046 3.41046C2.11142 4.7095 1.5 6.87739 1.5 10.4868C1.5 14.0963 2.11142 16.2642 3.41046 17.5632C4.70951 18.8623 6.87739 19.4737 10.4868 19.4737C14.0962 19.4737 16.2641 18.8623 17.5632 17.5632C18.8622 16.2642 19.4736 14.0963 19.4736 10.4868C19.4736 6.87739 18.8622 4.7095 17.5632 3.41046C16.2641 2.11141 14.0962 1.5 10.4868 1.5C6.87739 1.5 4.70951 2.11141 3.41046 3.41046ZM2.3498 2.3498C4.09365 0.60595 6.79419 0 10.4868 0C14.1795 0 16.8801 0.60595 18.6238 2.3498C20.3678 4.09365 20.9736 6.79419 20.9736 10.4868C20.9736 14.1795 20.3678 16.88 18.6238 18.6239C16.8801 20.3677 14.1795 20.9737 10.4868 20.9737C6.79419 20.9737 4.09365 20.3677 2.3498 18.6239C0.60595 16.88 0 14.1795 0 10.4868C0 6.79419 0.60595 4.09365 2.3498 2.3498Z" fill="#5C6B73"/>
</svg>
