<svg width="18" height="18" viewBox="0 0 18 18" fill="none" xmlns="http://www.w3.org/2000/svg">
<path d="M10.8224 14.1148C10.9649 14.1148 11.1074 14.0623 11.2199 13.9498L15.7724 9.39734C15.9899 9.17984 15.9899 8.81984 15.7724 8.60234L11.2199 4.04984C11.0024 3.83234 10.6424 3.83234 10.4249 4.04984C10.2074 4.26734 10.2074 4.62734 10.4249 4.84484L14.5799 8.99984L10.4249 13.1548C10.2074 13.3723 10.2074 13.7323 10.4249 13.9498C10.5299 14.0623 10.6799 14.1148 10.8224 14.1148Z" fill="#5C6B73"/>
<path d="M2.62506 9.5625H15.2476C15.5551 9.5625 15.8101 9.3075 15.8101 9C15.8101 8.6925 15.5551 8.4375 15.2476 8.4375H2.62506C2.31756 8.4375 2.06256 8.6925 2.06256 9C2.06256 9.3075 2.31756 9.5625 2.62506 9.5625Z" fill="#5C6B73"/>
</svg>
