<svg width="13" height="16" viewBox="0 0 13 16" fill="none" xmlns="http://www.w3.org/2000/svg">
<path fill-rule="evenodd" clip-rule="evenodd" d="M2.09484 2.04363C2.99742 0.879976 4.3961 0 6.31924 0C8.24208 0 9.64067 0.879999 10.5434 2.0436C11.4318 3.18889 11.8454 4.61185 11.8454 5.76588C11.8454 6.09713 11.8353 6.34304 11.8276 6.52963C11.8261 6.56802 11.8246 6.60385 11.8233 6.63742C11.8158 6.83815 11.8173 6.93459 11.8328 7.0301C11.8679 7.24738 11.979 7.51503 12.4231 8.49366C12.4275 8.50345 12.4317 8.5134 12.4356 8.52342C12.7564 9.34904 12.6847 10.1086 12.3031 10.7522C11.9389 11.3664 11.3269 11.8187 10.6655 12.1487C9.34256 12.8086 7.59372 13.0927 6.31924 13.0927C5.04445 13.0927 3.29541 12.8086 1.9725 12.1487C1.31097 11.8187 0.698974 11.3664 0.334954 10.7521C-0.0465282 10.1084 -0.118101 9.34888 0.202936 8.52327C0.206822 8.51332 0.210972 8.50345 0.215401 8.49366C0.659457 7.51503 0.770602 7.24738 0.805704 7.0301C0.821138 6.93459 0.822661 6.83815 0.815154 6.63742C0.813895 6.60385 0.812426 6.56802 0.810857 6.52963C0.803218 6.34305 0.793154 6.09713 0.793154 5.76588C0.793154 4.61191 1.20647 3.18894 2.09484 2.04363ZM3.01592 2.75807C2.29415 3.6886 1.95884 4.85715 1.95884 5.76588C1.95884 6.07137 1.96784 6.29206 1.97541 6.47788C1.97705 6.51798 1.97862 6.55644 1.98002 6.59382C1.98776 6.80046 1.99182 6.99723 1.95647 7.21607C1.89079 7.6225 1.69114 8.06251 1.29172 8.94276L1.28392 8.95985C1.09051 9.46708 1.15256 9.84531 1.33776 10.1579C1.54215 10.5028 1.93395 10.8268 2.49286 11.1056C3.61086 11.6633 5.16949 11.927 6.31924 11.927C7.46861 11.927 9.02705 11.6633 10.1451 11.1056C10.704 10.8268 11.0958 10.5028 11.3004 10.1578C11.4856 9.84523 11.5477 9.467 11.3545 8.95985L11.3468 8.94268C10.9473 8.06251 10.7477 7.6225 10.682 7.21607C10.6467 6.99723 10.6508 6.80046 10.6585 6.59382C10.6599 6.55652 10.6614 6.51798 10.663 6.47788C10.6707 6.29207 10.6797 6.07138 10.6797 5.76588C10.6797 4.85722 10.3442 3.68866 9.62233 2.7581C8.91468 1.84585 7.8417 1.16569 6.31924 1.16569C4.79639 1.16569 3.72345 1.84588 3.01592 2.75807Z" fill="#8D99AE"/>
<path fill-rule="evenodd" clip-rule="evenodd" d="M4.13561 14.135C4.37569 13.9206 4.74417 13.9413 4.95858 14.1814C5.74005 15.0562 6.90356 15.0482 7.67999 14.1809C7.89463 13.9411 8.26314 13.9207 8.50296 14.1354C8.74278 14.3501 8.76314 14.7186 8.54842 14.9584C7.31326 16.3382 5.33867 16.3568 4.0892 14.9579C3.87477 14.7179 3.89554 14.3495 4.13561 14.135Z" fill="#8D99AE"/>
</svg>
