<svg width="135" height="119" viewBox="0 0 135 119" fill="none" xmlns="http://www.w3.org/2000/svg">
<path d="M115.005 86.1636H4.40706C4.18154 86.1639 3.96447 86.0778 3.80051 85.923C3.63656 85.7681 3.53818 85.5563 3.52566 85.3312L0.000151276 7.23045C-0.00201174 7.11256 0.0190389 6.99541 0.0621657 6.88566C0.105292 6.77592 0.169648 6.67571 0.251496 6.59083C0.333344 6.50595 0.431099 6.43803 0.539203 6.39094C0.647307 6.34385 0.763608 6.31855 0.881503 6.31642H126.936C127.064 6.3156 127.19 6.34296 127.306 6.39657C127.421 6.45018 127.524 6.52873 127.605 6.62655C127.689 6.72102 127.75 6.83331 127.784 6.9549C127.818 7.07649 127.824 7.2042 127.801 7.32838L115.87 85.4291C115.835 85.6338 115.73 85.8197 115.571 85.9541C115.413 86.0885 115.212 86.1626 115.005 86.1636ZM5.23949 84.3518H114.254L125.924 7.99759H1.79553L5.23949 84.3518Z" fill="#8D99AE"/>
<path d="M109.505 101.947H12.9278C12.8031 101.964 12.6762 101.954 12.5556 101.918C12.435 101.882 12.3236 101.821 12.2288 101.738C12.1339 101.655 12.0579 101.553 12.0058 101.439C11.9537 101.324 11.9268 101.2 11.9268 101.074C11.9268 100.948 11.9537 100.824 12.0058 100.709C12.0579 100.594 12.1339 100.492 12.2288 100.41C12.3236 100.327 12.435 100.265 12.5556 100.229C12.6762 100.193 12.8031 100.184 12.9278 100.201H109.505C110.201 100.185 110.869 99.9248 111.392 99.4649C111.914 99.005 112.258 98.3754 112.361 97.6871L126.97 0.750797C127.004 0.544482 127.109 0.356592 127.267 0.219516C127.425 0.0824402 127.626 0.0047948 127.835 0H134.119C134.352 0 134.576 0.0928271 134.742 0.258119C134.907 0.423411 135 0.647593 135 0.881351C135 1.11511 134.907 1.33934 134.742 1.50463C134.576 1.66993 134.352 1.76275 134.119 1.76275H128.585L114.091 97.9482C113.931 99.0531 113.381 100.064 112.539 100.798C111.698 101.531 110.621 101.939 109.505 101.947Z" fill="#8D99AE"/>
<path d="M20.2718 118.4C19.0885 118.412 17.9156 118.179 16.8263 117.716C15.7371 117.254 14.755 116.571 13.9415 115.712C13.1281 114.852 12.5007 113.834 12.0986 112.721C11.6966 111.608 11.5285 110.424 11.6049 109.243C11.765 106.811 12.8374 104.528 14.6076 102.852C16.3778 101.175 18.7154 100.229 21.1532 100.201C22.3344 100.19 23.5053 100.422 24.5925 100.884C25.6798 101.346 26.66 102.027 27.472 102.885C28.2839 103.743 28.9101 104.759 29.3114 105.87C29.7126 106.981 29.8803 108.163 29.8039 109.341C29.6479 111.774 28.5796 114.059 26.8124 115.738C25.0453 117.417 22.7095 118.368 20.2718 118.4ZM21.1532 101.948C19.161 101.972 17.2511 102.747 15.805 104.117C14.3588 105.488 13.4826 107.353 13.3513 109.341C13.2856 110.285 13.4166 111.231 13.7362 112.121C14.0557 113.011 14.5567 113.825 15.2074 114.511C15.8581 115.197 16.6444 115.74 17.5162 116.106C18.388 116.472 19.3264 116.653 20.2718 116.637C22.2624 116.613 24.1703 115.837 25.6138 114.466C27.0574 113.095 27.9301 111.23 28.0575 109.243C28.1231 108.302 27.9924 107.356 27.6739 106.468C27.3553 105.579 26.8558 104.766 26.2068 104.08C25.5579 103.394 24.7737 102.851 23.9038 102.484C23.0339 102.117 22.0973 101.934 21.1532 101.948Z" fill="#8D99AE"/>
<path d="M104.445 118.4C103.263 118.409 102.092 118.175 101.005 117.711C99.9172 117.248 98.9371 116.565 98.1254 115.706C97.3137 114.847 96.6878 113.829 96.2867 112.717C95.8856 111.606 95.718 110.423 95.7943 109.243C95.9468 106.811 97.0145 104.526 98.7829 102.849C100.551 101.171 102.889 100.225 105.326 100.201C106.508 100.19 107.68 100.422 108.768 100.884C109.856 101.345 110.837 102.026 111.65 102.884C112.464 103.741 113.091 104.758 113.494 105.869C113.898 106.98 114.067 108.162 113.993 109.341C113.833 111.776 112.762 114.06 110.992 115.739C109.222 117.418 106.884 118.368 104.445 118.4ZM105.326 101.948C103.335 101.968 101.425 102.743 99.9803 104.114C98.5359 105.486 97.6643 107.353 97.5407 109.341C97.4751 110.283 97.6057 111.229 97.9243 112.117C98.2428 113.006 98.7424 113.819 99.3913 114.505C100.04 115.191 100.825 115.734 101.694 116.101C102.564 116.468 103.501 116.651 104.445 116.637C106.437 116.613 108.347 115.838 109.793 114.468C111.239 113.097 112.116 111.232 112.247 109.243C112.313 108.3 112.182 107.354 111.862 106.464C111.542 105.574 111.041 104.76 110.391 104.074C109.74 103.388 108.954 102.845 108.082 102.479C107.21 102.113 106.272 101.932 105.326 101.948Z" fill="#8D99AE"/>
</svg>
