<svg width="18" height="18" viewBox="0 0 18 18" fill="none" xmlns="http://www.w3.org/2000/svg">
<path fill-rule="evenodd" clip-rule="evenodd" d="M3.81176 9.86574C7.46119 9.86574 7.62352 11.1034 7.62352 13.6775C7.62352 14.9672 7.62352 15.8847 7.0818 16.5565C6.45847 17.3305 5.32391 17.4893 3.81176 17.4893C2.29961 17.4893 1.16505 17.3305 0.541719 16.5565C0 15.8847 0 14.9681 0 13.6999L0.672664 13.6775H0C0 11.1034 0.162336 9.86574 3.81176 9.86574ZM13.6775 9.86574C17.3269 9.86574 17.4893 11.1034 17.4893 13.6775C17.4893 14.9672 17.4893 15.8847 16.9475 16.5565C16.3242 17.3305 15.1896 17.4893 13.6775 17.4893C12.1653 17.4893 11.0308 17.3305 10.4075 16.5565C9.86574 15.8847 9.86574 14.9681 9.86574 13.6999L10.5384 13.6775H9.86574C9.86574 11.1034 10.0281 9.86574 13.6775 9.86574ZM3.99666 11.2115L3.81176 11.2111C1.47181 11.2111 1.35181 11.379 1.34566 13.343L1.34604 14.1082C1.35029 14.8893 1.38005 15.4536 1.58838 15.7134C1.82606 16.0076 2.53191 16.1439 3.81176 16.1439C5.09162 16.1439 5.79746 16.0067 6.03514 15.7125C6.2782 15.4103 6.2782 14.6928 6.2782 13.699C6.2782 11.4566 6.27819 11.222 3.99666 11.2115ZM13.8624 11.2115L13.6775 11.2111C11.3375 11.2111 11.2175 11.379 11.2114 13.343L11.2118 14.1082C11.216 14.8893 11.2458 15.4536 11.4541 15.7134C11.6918 16.0076 12.3976 16.1439 13.6775 16.1439C14.9574 16.1439 15.6632 16.0067 15.9009 15.7125C16.1439 15.4103 16.1439 14.6928 16.1439 13.699C16.1439 11.4566 16.1439 11.222 13.8624 11.2115ZM3.81176 0C7.46119 0 7.62352 1.2377 7.62352 3.81176C7.62352 5.10148 7.62352 6.019 7.0818 6.69076C6.45847 7.46477 5.32391 7.62352 3.81176 7.62352C2.29961 7.62352 1.16505 7.46477 0.541719 6.69076C0 6.019 0 5.10238 0 3.83418L0.672664 3.81176H0C0 1.2377 0.162336 0 3.81176 0ZM13.6775 0C17.3269 0 17.4893 1.2377 17.4893 3.81176C17.4893 5.10148 17.4893 6.019 16.9475 6.69076C16.3242 7.46477 15.1896 7.62352 13.6775 7.62352C12.1653 7.62352 11.0308 7.46477 10.4075 6.69076C9.86574 6.019 9.86574 5.10238 9.86574 3.83418L10.5384 3.81176H9.86574C9.86574 1.2377 10.0281 0 13.6775 0ZM3.99666 1.34573L3.81176 1.34533C1.47181 1.34533 1.35181 1.51324 1.34566 3.47727L1.34604 4.24243C1.35029 5.02358 1.38005 5.58785 1.58838 5.84769C1.82606 6.14187 2.53191 6.2782 3.81176 6.2782C5.09162 6.2782 5.79746 6.14097 6.03514 5.84679C6.2782 5.54454 6.2782 4.82704 6.2782 3.83329C6.2782 1.59089 6.27819 1.35628 3.99666 1.34573ZM13.8624 1.34573L13.6775 1.34533C11.3375 1.34533 11.2175 1.51324 11.2114 3.47727L11.2118 4.24243C11.216 5.02358 11.2458 5.58785 11.4541 5.84769C11.6918 6.14187 12.3976 6.2782 13.6775 6.2782C14.9574 6.2782 15.6632 6.14097 15.9009 5.84679C16.1439 5.54454 16.1439 4.82704 16.1439 3.83329C16.1439 1.59089 16.1439 1.35628 13.8624 1.34573Z" fill="#5C6B73"/>
</svg>
