<svg width="61" height="54" viewBox="0 0 61 54" fill="none" xmlns="http://www.w3.org/2000/svg">
<path d="M54.89 12.44C53.74 11.29 51.7 11.29 50.56 12.44L44.07 18.93C43.48 19.52 43.15 20.31 43.16 21.13C43.16 21.94 43.49 22.71 44.07 23.26L48.65 27.87C46.68 32.08 45.18 34.8 43.16 36.82C42.86 37.12 42.54 37.41 42.2 37.69V18.38C42.2 15.5 40.05 13.16 37.4 13.16H34.86V3.44C34.86 1.54 33.37 0 31.54 0H11.6C9.77 0 8.28 1.54 8.28 3.44V13.16H4.8C2.15 13.16 0 15.5 0 18.38V42.13C0 45.01 2.34 47.35 5.22 47.35H18.04C18.19 47.79 18.43 48.2 18.78 48.54C22.3 51.99 26.51 53.47 30.89 53.47C37.95 53.47 45.43 49.63 51.04 44.03C59.51 35.57 64.33 22.07 54.89 12.43V12.44ZM10.27 3.44C10.27 2.66 10.88 2 11.59 2H31.52C32.24 2 32.84 2.66 32.84 3.44V17.24C32.84 18.05 32.25 18.71 31.52 18.71H19.3C18.95 18.71 18.63 18.89 18.45 19.19L16.64 22.13C16.52 22.33 16.41 22.4 16.43 22.42C16.41 22.41 16.38 22.37 16.32 22.28L14.39 19.19C14.21 18.9 13.89 18.72 13.54 18.72H11.58C10.85 18.72 10.26 18.06 10.26 17.25V3.44H10.27ZM8.27 15.16V17.25C8.27 19.16 9.76 20.72 11.59 20.72H12.99L14.61 23.32C15.02 24 15.65 24.4 16.36 24.41C16.36 24.41 16.38 24.41 16.39 24.41C16.42 24.41 16.44 24.4 16.47 24.4C17.19 24.4 17.86 23.95 18.34 23.19L19.86 20.72H31.52C33.35 20.72 34.84 19.16 34.84 17.25V15.16H36.99C38.75 15.16 40.19 16.61 40.19 18.38V21.89L24.63 32.93C22.71 34.27 19.66 34.39 17.96 33.19L2 21.89V18.38C2 16.6 3.45 15.16 5.22 15.16H8.27ZM2 42.13V24.34L16.81 34.82C17.95 35.63 19.43 36.03 20.96 36.03C22.65 36.03 24.4 35.54 25.79 34.57L40.2 24.35V39.14C40.2 39.14 40.15 39.17 40.13 39.18C39.79 39.4 39.43 39.61 39.06 39.83C38.96 39.89 38.86 39.95 38.75 40.01C38.36 40.23 37.95 40.45 37.52 40.68C37.49 40.7 37.46 40.71 37.42 40.73C36.42 41.25 35.33 41.78 34.18 42.33L29.59 37.71C28.38 36.54 26.44 36.55 25.27 37.72L18.78 44.21C18.62 44.37 18.49 44.54 18.37 44.73C18.34 44.77 18.32 44.82 18.3 44.86C18.21 45.01 18.14 45.16 18.08 45.32C18.08 45.34 18.06 45.35 18.06 45.36H5.22C3.44 45.36 2 43.91 2 42.14V42.13ZM49.63 42.61C41.25 50.98 28.44 55.22 20.18 47.1C19.98 46.91 19.87 46.65 19.87 46.38C19.87 46.3 19.9 46.23 19.91 46.16C19.96 45.95 20.04 45.75 20.19 45.61L26.68 39.12C27.09 38.71 27.77 38.72 28.18 39.12L33.25 44.22C33.47 44.44 33.78 44.55 34.09 44.51C34.14 44.51 34.19 44.48 34.25 44.46C34.3 44.45 34.34 44.44 34.39 44.42C34.4 44.42 34.42 44.41 34.43 44.4C35.85 43.74 37.09 43.13 38.21 42.55C38.37 42.47 38.52 42.39 38.68 42.31C39.12 42.08 39.53 41.85 39.93 41.62C40.05 41.55 40.17 41.49 40.29 41.42C42.01 40.41 43.38 39.41 44.57 38.21C46.9 35.88 48.54 32.84 50.75 28.06C50.93 27.68 50.85 27.23 50.55 26.94L45.46 21.82C45.26 21.63 45.15 21.37 45.15 21.1C45.15 20.81 45.26 20.54 45.47 20.33L51.96 13.84C52.36 13.44 53.06 13.44 53.46 13.84C61.99 22.55 57.68 34.57 49.62 42.62L49.63 42.61Z" fill="white"/>
<path d="M17.7202 13.1405C19.2602 13.1405 20.5102 11.8905 20.5102 10.3505C20.5102 8.81055 19.2602 7.56055 17.7202 7.56055C16.1802 7.56055 14.9102 8.81055 14.9102 10.3505C14.9102 11.8905 16.1702 13.1405 17.7202 13.1405ZM17.7202 9.57055C18.1502 9.57055 18.5102 9.93055 18.5102 10.3605C18.5102 10.7905 18.1502 11.1505 17.7202 11.1505C17.2702 11.1505 16.9102 10.8005 16.9102 10.3605C16.9102 9.92055 17.2802 9.57055 17.7202 9.57055Z" fill="white"/>
<path d="M25.4301 13.1405C26.9701 13.1405 28.2201 11.8905 28.2201 10.3505C28.2201 8.81055 26.9701 7.56055 25.4301 7.56055C23.8901 7.56055 22.6201 8.81055 22.6201 10.3505C22.6201 11.8905 23.8801 13.1405 25.4301 13.1405ZM25.4301 9.57055C25.8601 9.57055 26.2201 9.93055 26.2201 10.3605C26.2201 10.7905 25.8601 11.1505 25.4301 11.1505C24.9801 11.1505 24.6201 10.8005 24.6201 10.3605C24.6201 9.92055 24.9901 9.57055 25.4301 9.57055Z" fill="white"/>
</svg>
