<svg width="13" height="15" viewBox="0 0 13 15" fill="none" xmlns="http://www.w3.org/2000/svg">
<path fill-rule="evenodd" clip-rule="evenodd" d="M11.5397 4.7327C11.8306 4.75664 12.0475 5.01089 12.0243 5.30177C12.02 5.34966 11.6383 10.0762 11.4186 12.0588C11.2819 13.2893 10.4692 14.0379 9.24227 14.0605C8.30343 14.0767 7.3977 14.0858 6.5124 14.0858C5.55807 14.0858 4.62768 14.0753 3.70716 14.0562C2.52957 14.033 1.71469 13.2695 1.58158 12.0638C1.35972 10.0636 0.980106 5.34896 0.976585 5.30177C0.952638 5.01089 1.16956 4.75594 1.46044 4.7327C1.74709 4.72495 2.00627 4.92638 2.02952 5.21655C2.03176 5.24712 2.18696 7.17242 2.35607 9.07733L2.39004 9.45747C2.47522 10.4043 2.56156 11.3141 2.63169 11.9476C2.70705 12.6328 3.07681 12.9864 3.729 12.9998C5.48975 13.0371 7.28642 13.0392 9.22325 13.004C9.91629 12.9906 10.291 12.6441 10.3684 11.9426C10.5868 9.97481 10.9671 5.26444 10.9713 5.21655C10.9946 4.92638 11.2516 4.72354 11.5397 4.7327ZM7.99058 0C8.63713 0 9.2055 0.435963 9.37242 1.06068L9.55132 1.9488C9.60913 2.23994 9.86462 2.45256 10.1605 2.45723L12.4718 2.45731C12.7634 2.45731 13 2.69395 13 2.98553C13 3.27712 12.7634 3.51376 12.4718 3.51376L10.1811 3.51365C10.1775 3.51373 10.174 3.51376 10.1704 3.51376L10.1532 3.51306L2.84652 3.51367C2.84084 3.51373 2.83515 3.51376 2.82946 3.51376L2.81862 3.51306L0.528226 3.51376C0.236645 3.51376 0 3.27712 0 2.98553C0 2.69395 0.236645 2.45731 0.528226 2.45731L2.83904 2.4566L2.91019 2.4521C3.17521 2.41772 3.39546 2.21644 3.44925 1.9488L3.62039 1.09237C3.79435 0.435963 4.36273 0 5.00927 0H7.99058ZM7.99058 1.05645H5.00927C4.84024 1.05645 4.69164 1.16984 4.64867 1.33254L4.48457 2.15657C4.46371 2.26095 4.43334 2.36153 4.39448 2.4575H8.60559C8.56668 2.36153 8.53624 2.26095 8.51529 2.15657L8.34414 1.30014C8.30822 1.16984 8.15962 1.05645 7.99058 1.05645Z" fill="#FF383C"/>
</svg>
