<svg width="11" height="11" viewBox="0 0 11 11" fill="none" xmlns="http://www.w3.org/2000/svg">
<path fill-rule="evenodd" clip-rule="evenodd" d="M10.5769 9.83745C10.8105 9.83745 11 10.027 11 10.2605C11 10.4941 10.8105 10.6836 10.5769 10.6836H6.4856C6.25206 10.6836 6.06253 10.4941 6.06253 10.2605C6.06253 10.027 6.25206 9.83745 6.4856 9.83745H10.5769ZM7.96283 0.368713C7.99104 0.390712 8.93476 1.12403 8.93476 1.12403C9.27772 1.32823 9.54567 1.69319 9.6472 2.12529C9.74817 2.55286 9.67484 2.99398 9.43962 3.36684C9.43804 3.36933 9.43649 3.37179 9.43104 3.3791L9.42679 3.38475C9.38861 3.43507 9.22263 3.64494 8.38493 4.69448C8.37715 4.70823 8.36834 4.72111 8.35871 4.73363C8.34458 4.75208 8.32921 4.76905 8.3128 4.78449C8.25566 4.85643 8.19531 4.93202 8.13186 5.0115L8.00329 5.17253C7.738 5.50476 7.42333 5.89873 7.05001 6.366L6.85843 6.60581C6.13771 7.50787 5.21468 8.66285 4.03226 10.1421C3.77334 10.4648 3.38525 10.6526 2.96839 10.6577L0.915671 10.6836H0.91003C0.714291 10.6836 0.543936 10.5494 0.498245 10.3582L0.0362564 8.40021C-0.0590746 7.99463 0.0356923 7.57608 0.295737 7.25116L5.60945 0.605066C5.61171 0.602809 5.6134 0.599989 5.61566 0.597733C6.19836 -0.0989171 7.25208 -0.201581 7.96283 0.368713ZM5.01701 2.70029L0.956285 7.77971C0.859826 7.90043 0.824289 8.05612 0.859826 8.2056L1.24397 9.83299L2.95824 9.81156C3.12126 9.80987 3.27187 9.7371 3.37171 9.613C3.88587 8.9697 4.53208 8.16117 5.19646 7.32978L5.43152 7.03563L5.66697 6.74098C6.29005 5.96123 6.90561 5.19078 7.42066 4.54592L5.01701 2.70029ZM6.26718 1.13757L5.54556 2.03918L7.94901 3.88428C8.41163 3.30483 8.71596 2.92319 8.7441 2.8868C8.83661 2.73676 8.87271 2.52466 8.8242 2.32046C8.77456 2.11118 8.64425 1.93349 8.45641 1.82011C8.41636 1.79247 7.46587 1.05464 7.43654 1.03152C7.07891 0.74496 6.55712 0.7946 6.26718 1.13757Z" fill="#01B091"/>
</svg>
