<svg width="125" height="88" viewBox="0 0 125 88" fill="none" xmlns="http://www.w3.org/2000/svg">
<path d="M89.0551 26.6841C89.0551 11.9703 77.1421 0 62.4994 0C47.8573 0 35.9455 11.9703 35.9455 26.6841C35.9455 41.3973 47.8573 53.3676 62.4994 53.3676C77.1421 53.3676 89.0551 41.3973 89.0551 26.6841ZM62.4994 50.7376C49.3007 50.7376 38.5627 39.9475 38.5627 26.6841C38.5627 13.4207 49.3007 2.62995 62.4994 2.62995C75.6993 2.62995 86.4379 13.4207 86.4379 26.6841C86.4379 39.9475 75.6993 50.7376 62.4994 50.7376ZM68.7473 34.9573C68.7473 37.7221 66.0022 39.8878 62.4994 39.8878C58.9965 39.8878 56.2527 37.7221 56.2527 34.9573C56.2527 34.2311 56.8387 33.6423 57.5614 33.6423C58.284 33.6423 58.87 34.2311 58.87 34.9573C58.87 36.183 60.5658 37.2579 62.4994 37.2579C64.4329 37.2579 66.13 36.183 66.13 34.9573C66.13 34.2311 66.7153 33.6423 67.4386 33.6423C68.1619 33.6423 68.7473 34.2311 68.7473 34.9573ZM50.9171 25.1675C50.9171 25.1715 50.9183 25.1752 50.9183 25.1792C50.9183 26.4136 49.9223 27.4145 48.6937 27.4145C47.4651 27.4145 46.4692 26.4136 46.4692 25.1792C46.4692 25.1752 46.4704 25.1715 46.4704 25.1675C45.7477 25.1675 45.1608 24.5787 45.1608 23.8526C45.1608 23.1264 45.7467 22.5376 46.4694 22.5376H56.2841C57.0067 22.5376 57.5927 23.1264 57.5927 23.8526C57.5927 24.5787 57.0067 25.1675 56.2841 25.1675H50.9171ZM79.8398 23.8526C79.8398 24.5787 79.2545 25.1675 78.5312 25.1675H73.1638C73.1638 25.1715 73.165 25.1752 73.165 25.1792C73.165 26.4136 72.169 27.4145 70.9404 27.4145C69.7118 27.4145 68.7159 26.4136 68.7159 25.1792C68.7159 25.1752 68.7171 25.1715 68.7171 25.1675H68.7153C67.992 25.1675 67.4067 24.5787 67.4067 23.8526C67.4067 23.1264 67.992 22.5376 68.7153 22.5376H78.5312C79.2545 22.5376 79.8398 23.1264 79.8398 23.8526ZM22.1149 43.5541C9.92072 43.5541 0 53.523 0 65.7764C0 78.0311 9.92072 88 22.1149 88C34.3091 88 44.2298 78.0311 44.2298 65.7764C44.2298 53.523 34.3091 43.5541 22.1149 43.5541ZM22.1149 85.37C11.3642 85.37 2.61724 76.58 2.61724 65.7764C2.61724 54.9728 11.3642 46.184 22.1149 46.184C32.8656 46.184 41.6126 54.9728 41.6126 65.7764C41.6126 76.58 32.8656 85.37 22.1149 85.37ZM27.4932 72.5953C27.4932 75.0043 25.1302 76.8908 22.1143 76.8908C19.0983 76.8908 16.736 75.0043 16.736 72.5953C16.736 71.8684 17.322 71.2803 18.0446 71.2803C18.7673 71.2803 19.3533 71.8684 19.3533 72.5953C19.3533 73.3825 20.4874 74.2608 22.1143 74.2608C23.7417 74.2608 24.8759 73.3825 24.8759 72.5953C24.8759 71.8684 25.4619 71.2803 26.1845 71.2803C26.9072 71.2803 27.4932 71.8684 27.4932 72.5953ZM16.9922 64.7593H12.5475C12.4372 65.6706 11.6732 66.3792 10.7364 66.3792C9.79971 66.3792 9.03582 65.6706 8.92543 64.7593H8.90283C8.18015 64.7593 7.59421 64.1712 7.59421 63.4444C7.59421 62.7175 8.18015 62.1294 8.90283 62.1294H16.9922C17.7149 62.1294 18.3009 62.7175 18.3009 63.4444C18.3009 64.1712 17.7149 64.7593 16.9922 64.7593ZM35.3263 62.1294C36.049 62.1294 36.635 62.7175 36.635 63.4444C36.635 64.1712 36.049 64.7593 35.3263 64.7593H30.882C30.7716 65.6706 30.0077 66.3792 29.0709 66.3792C28.1342 66.3792 27.3703 65.6706 27.2599 64.7593H27.2376C26.5149 64.7593 25.9289 64.1712 25.9289 63.4444C25.9289 62.7175 26.5149 62.1294 27.2376 62.1294H35.3263ZM102.885 43.5541C90.6909 43.5541 80.7702 53.523 80.7702 65.7764C80.7702 78.0311 90.6909 88 102.885 88C115.079 88 125 78.0311 125 65.7764C125 53.523 115.079 43.5541 102.885 43.5541ZM102.885 85.37C92.1337 85.37 83.3874 76.58 83.3874 65.7764C83.3874 54.9728 92.1337 46.184 102.885 46.184C113.636 46.184 122.383 54.9728 122.383 65.7764C122.383 76.58 113.636 85.37 102.885 85.37ZM108.264 72.5953C108.264 75.0043 105.901 76.8908 102.885 76.8908C99.8691 76.8908 97.5062 75.0043 97.5062 72.5953C97.5062 71.8684 98.0915 71.2803 98.8148 71.2803C99.5381 71.2803 100.123 71.8684 100.123 72.5953C100.123 73.3825 101.257 74.2608 102.885 74.2608C104.513 74.2608 105.647 73.3825 105.647 72.5953C105.647 71.8684 106.232 71.2803 106.955 71.2803C107.679 71.2803 108.264 71.8684 108.264 72.5953ZM97.7618 64.7593H93.3178C93.2074 65.6706 92.4435 66.3792 91.5067 66.3792C90.57 66.3792 89.806 65.6706 89.6956 64.7593H89.6737C88.9503 64.7593 88.365 64.1712 88.365 63.4444C88.365 62.7175 88.9503 62.1294 89.6737 62.1294H97.7618C98.4851 62.1294 99.0704 62.7175 99.0704 63.4444C99.0704 64.1712 98.4851 64.7593 97.7618 64.7593ZM117.405 63.4444C117.405 64.1712 116.82 64.7593 116.097 64.7593H111.652C111.542 65.6706 110.778 66.3792 109.841 66.3792C108.904 66.3792 108.141 65.6706 108.03 64.7593H108.008C107.285 64.7593 106.7 64.1712 106.7 63.4444C106.7 62.7175 107.285 62.1294 108.008 62.1294H116.097C116.82 62.1294 117.405 62.7175 117.405 63.4444Z" fill="#8D99AE"/>
</svg>
