<svg width="92" height="78" viewBox="0 0 92 78" fill="none" xmlns="http://www.w3.org/2000/svg">
<path d="M25.3981 10.4888C17.2194 10.4888 10.5635 17.14 10.5635 25.3152C10.5635 26.2105 11.2929 26.9363 12.1892 26.9363C13.0828 26.9363 13.8093 26.2105 13.8093 25.3152C13.8093 18.928 19.0067 13.7366 25.3981 13.7366C26.2918 13.7366 27.021 13.008 27.021 12.1127C27.021 11.2173 26.2916 10.4888 25.3981 10.4888Z" fill="#8D99AE"/>
<path d="M75.8201 49.6622C75.8201 49.2283 75.6529 48.8197 75.3469 48.5165C74.7317 47.8965 73.6628 47.9047 73.0476 48.5137L68.5658 52.9961L64.0813 48.5137C63.4661 47.9047 62.3971 47.8992 61.7875 48.5137C61.4786 48.8196 61.3086 49.2283 61.3086 49.662C61.3086 50.0931 61.4784 50.5018 61.7846 50.8049L66.2721 55.2874L61.7875 59.7725C61.1529 60.4037 61.1529 61.4356 61.7846 62.0695C62.3971 62.6756 63.4632 62.6839 64.0813 62.0639L68.5658 57.5841L73.0533 62.0695C73.6574 62.6756 74.7319 62.6813 75.3471 62.0695C75.9761 61.4356 75.9761 60.4037 75.3471 59.7725L70.8596 55.2874L75.3414 50.8077C75.6531 50.502 75.8201 50.0932 75.8201 49.6622Z" fill="#8D99AE"/>
<path d="M87.4337 42.4048L87.1109 41.9126L87.3726 41.3871C90.0895 35.9564 91.3783 30.4759 91.2001 25.0926C90.7325 11.0225 79.6587 0 65.9851 0C61.5089 0 57.105 1.1902 53.2552 3.43695C50.6303 4.96635 48.3224 6.94064 46.399 9.29862L45.6084 10.2719L44.8177 9.29862C42.8915 6.9378 40.5865 4.96635 37.9586 3.43144C34.1115 1.1902 29.7078 0 25.2314 0C11.5576 0 0.48123 11.0225 0.0164172 25.0926C-0.217326 32.1472 2.04581 39.3072 6.74739 46.3757C10.4413 51.9341 15.6553 57.4509 22.2334 62.7733C33.3766 71.7797 44.4475 77.0518 44.915 77.2716L45.6082 77.5969L46.3014 77.2716C46.3376 77.2549 49.3162 75.8589 53.823 73.2091L54.402 72.8671L54.9449 73.2703C58.8811 76.1732 63.552 77.7083 68.4542 77.7083C81.0061 77.7083 91.2169 67.5033 91.2169 54.9626C91.2167 50.4714 89.9083 46.131 87.4337 42.4048ZM50.8082 71.193C48.74 72.3748 47.0921 73.2451 46.0732 73.7651L45.6084 73.9985L45.1435 73.7651C41.753 72.0355 32.9175 67.2501 24.1961 60.187C17.8908 55.079 12.9191 49.8124 9.42011 44.5348C5.12206 38.0615 3.04812 31.5547 3.25978 25.1983C3.45468 19.2783 5.79852 13.7587 9.85998 9.66006C13.9548 5.52532 19.4139 3.24796 25.2318 3.24796C29.1402 3.24796 32.9761 4.2796 36.3249 6.23984C39.5792 8.13067 42.3042 10.8501 44.2112 14.0895L45.6087 16.4669L47.0089 14.0867C48.913 10.8499 51.6381 8.13601 54.8923 6.23414C58.2411 4.27942 62.0771 3.24778 65.9855 3.24778C71.8007 3.24778 77.2568 5.52515 81.3546 9.65988C85.4161 13.7585 87.7599 19.2753 87.9575 25.1982C88.0966 29.3386 87.2504 33.5846 85.4494 37.825L84.8843 39.1487L83.8208 38.1783C79.6145 34.3299 74.1556 32.2137 68.4546 32.2137C55.9055 32.2137 45.6949 42.4187 45.6949 54.9621C45.6949 60.3344 47.6073 65.5538 51.0814 69.6495L51.872 70.5838L50.8082 71.193ZM82.2587 68.7515C78.5702 72.4359 73.668 74.463 68.4542 74.463C63.2404 74.463 58.3409 72.4359 54.6554 68.7515C50.9697 65.0699 48.9404 60.1731 48.9404 54.9623C48.9404 49.7514 50.9698 44.852 54.6582 41.1703C58.3411 37.486 63.2404 35.4588 68.4544 35.4588C73.6683 35.4588 78.5704 37.486 82.2562 41.1703C85.942 44.8546 87.9712 49.7514 87.9712 54.9623C87.9712 60.1731 85.9416 65.0672 82.2587 68.7515Z" fill="#8D99AE"/>
</svg>
