<svg width="12" height="12" viewBox="0 0 12 12" fill="none" xmlns="http://www.w3.org/2000/svg">
<path d="M2.65942 7.25176L2.24172 8.81109L0.715046 8.84338C0.258794 7.99714 0 7.02892 0 6.00003C0 5.0051 0.241966 4.06686 0.670867 3.24072H0.671195L2.03036 3.48991L2.62576 4.84092C2.50115 5.20422 2.43323 5.59422 2.43323 6.00003C2.43327 6.44046 2.51305 6.86245 2.65942 7.25176Z" fill="#FBBB00"/>
<path d="M11.8951 4.87891C11.964 5.24185 12 5.61669 12 5.99977C12 6.42932 11.9548 6.84833 11.8688 7.25251C11.5767 8.62787 10.8135 9.82884 9.75629 10.6787L9.75596 10.6784L8.04401 10.591L7.80172 9.07852C8.50324 8.66711 9.05148 8.02326 9.34028 7.25251H6.13196V4.87891H11.8951Z" fill="#518EF8"/>
<path d="M9.75597 10.6783L9.7563 10.6787C8.72809 11.5051 7.42193 11.9996 6.00009 11.9996C3.71517 11.9996 1.72861 10.7225 0.71521 8.84309L2.65958 7.25146C3.16627 8.60374 4.47076 9.56638 6.00009 9.56638C6.65743 9.56638 7.27327 9.38868 7.80171 9.07846L9.75597 10.6783Z" fill="#28B446"/>
<path d="M9.82969 1.38129L7.88597 2.97259C7.33906 2.63073 6.69257 2.43325 5.99995 2.43325C4.43601 2.43325 3.10712 3.44004 2.62582 4.84081L0.671227 3.24061H0.670898C1.66946 1.31537 3.68108 0 5.99995 0C7.45576 0 8.79057 0.518571 9.82969 1.38129Z" fill="#F14336"/>
</svg>
