<svg width="19" height="20" viewBox="0 0 19 20" fill="none" xmlns="http://www.w3.org/2000/svg">
<path d="M6.6969 17.5185V14.779C6.69689 14.0822 7.26495 13.516 7.96878 13.5113H10.5469C11.2541 13.5113 11.8274 14.0789 11.8274 14.779V17.527C11.8272 18.1186 12.3042 18.6022 12.9016 18.616H14.6204C16.3338 18.616 17.7227 17.241 17.7227 15.5447V7.75155C17.7136 7.08425 17.3971 6.45762 16.8634 6.04999L10.9852 1.36218C9.95541 0.54594 8.49153 0.54594 7.46175 1.36218L1.60938 6.0585C1.07361 6.46447 0.756599 7.09214 0.75 7.76006V15.5447C0.75 17.241 2.13897 18.616 3.85236 18.616H5.57111C6.18338 18.616 6.67971 18.1247 6.67971 17.5185" stroke="white" stroke-width="1.5" stroke-linecap="round" stroke-linejoin="round"/>
</svg>
