<svg width="18" height="18" viewBox="0 0 18 18" fill="none" xmlns="http://www.w3.org/2000/svg">
<path fill-rule="evenodd" clip-rule="evenodd" d="M7.92562 0C10.0084 0 11.7028 1.69446 11.7028 3.77719V4.57077C11.7028 4.92329 11.4167 5.20939 11.0642 5.20939C10.7117 5.20939 10.4256 4.92329 10.4256 4.57077V3.77719C10.4256 2.39778 9.30418 1.27723 7.92562 1.27723H3.77463C2.39778 1.27723 1.27723 2.39778 1.27723 3.77719V13.2534C1.27723 14.6319 2.39778 15.7525 3.77463 15.7525H7.93499C9.30758 15.7525 10.4256 14.6353 10.4256 13.2627V12.4598C10.4256 12.1073 10.7117 11.8212 11.0642 11.8212C11.4167 11.8212 11.7028 12.1073 11.7028 12.4598V13.2627C11.7028 15.3404 10.0118 17.0297 7.93499 17.0297H3.77463C1.6936 17.0297 0 15.3361 0 13.2534V3.77719C0 1.69446 1.6936 0 3.77463 0H7.92562ZM14.8057 5.58063L17.2989 8.06271C17.3211 8.08478 17.341 8.10773 17.3592 8.13202L17.2989 8.06271C17.329 8.09246 17.3559 8.12496 17.3791 8.15962C17.3894 8.17532 17.3993 8.19156 17.4084 8.20825C17.4158 8.22129 17.4227 8.2349 17.429 8.24873C17.4344 8.26096 17.4396 8.27319 17.4443 8.28561C17.4508 8.30179 17.4564 8.31843 17.4613 8.33528C17.465 8.34856 17.4685 8.3618 17.4714 8.37521C17.4753 8.39147 17.4782 8.40784 17.4806 8.42432C17.4819 8.43505 17.4832 8.44628 17.4842 8.4576C17.4862 8.47702 17.487 8.4959 17.487 8.51485L17.4827 8.56765L17.4809 8.60147C17.4808 8.60292 17.4806 8.60436 17.4803 8.6058L17.487 8.51485C17.487 8.56212 17.4818 8.60892 17.4716 8.65443C17.4685 8.6679 17.465 8.68115 17.4612 8.69422C17.4564 8.71128 17.4508 8.72792 17.4445 8.74429C17.4396 8.75652 17.4344 8.76875 17.4289 8.78078C17.4227 8.79481 17.4159 8.80842 17.4085 8.82178C17.3993 8.83815 17.3894 8.85439 17.3788 8.87013C17.3728 8.87946 17.3663 8.88868 17.3595 8.89773C17.3392 8.9244 17.3171 8.94949 17.2932 8.97273L14.8057 11.4499C14.6814 11.5742 14.5179 11.6364 14.3553 11.6364C14.1918 11.6364 14.0275 11.5742 13.9031 11.4482C13.6545 11.1979 13.6554 10.7943 13.9048 10.5456L15.3012 9.15347H6.59543C6.24292 9.15347 5.95682 8.86737 5.95682 8.51485C5.95682 8.16234 6.24292 7.87624 6.59543 7.87624H15.3029L13.9048 6.48491C13.6554 6.23628 13.6536 5.83267 13.9031 5.58234C14.1518 5.332 14.5554 5.332 14.8057 5.58063Z" fill="#5C6B73"/>
</svg>
