<?xml version="1.0" encoding="UTF-8"?>
<svg version="1.1" xmlns="http://www.w3.org/2000/svg" width="1024" height="1024">
<path d="M0 0 C337.92 0 675.84 0 1024 0 C1024 337.92 1024 675.84 1024 1024 C686.08 1024 348.16 1024 0 1024 C0 686.08 0 348.16 0 0 Z " fill="#FEFEFE" transform="translate(0,0)"/>
<path d="M0 0 C1.15940996 2.01307474 2.30194823 4.03587138 3.4375 6.0625 C4.07558594 7.18785156 4.71367188 8.31320313 5.37109375 9.47265625 C8.47700137 16.19839865 8.17007806 23.32592423 8.203125 30.6015625 C8.21004868 31.6237085 8.21697235 32.64585449 8.22410583 33.69897461 C8.24140264 37.00768865 8.24770105 40.31624278 8.25 43.625 C8.25133942 44.74992859 8.25267883 45.87485718 8.25405884 47.03387451 C8.24952906 64.54225839 7.66185187 81.66693893 5 99 C4.8158252 100.22082275 4.8158252 100.22082275 4.62792969 101.46630859 C3.91515014 106.01886886 3.0252742 110.50571553 2 115 C1.71382812 116.25683594 1.42765625 117.51367188 1.1328125 118.80859375 C-10.35906629 167.51400503 -32.82099895 209.61917282 -65.51660156 247.27099609 C-66.56840046 248.49694076 -67.60540335 249.73565021 -68.63183594 250.98291016 C-69.16325195 251.62405762 -69.69466797 252.26520508 -70.2421875 252.92578125 C-70.72284668 253.51399658 -71.20350586 254.10221191 -71.69873047 254.70825195 C-73 256 -73 256 -75 256 C-75.21269531 256.54785156 -75.42539062 257.09570312 -75.64453125 257.66015625 C-77.4757615 260.82127129 -79.99518072 263.02586256 -82.6875 265.4375 C-83.26274414 265.95973145 -83.83798828 266.48196289 -84.43066406 267.02001953 C-99.68568668 280.80205853 -115.408423 294.07318648 -131.7734375 306.51953125 C-135.31433086 309.22362468 -138.78106292 312.01708584 -142.25 314.8125 C-148.23566527 319.62825033 -154.30405772 324.3240267 -160.41699219 328.97680664 C-165.96857375 333.20401205 -171.49146036 337.46686189 -177 341.75 C-177.78415283 342.3589209 -178.56830566 342.9678418 -179.3762207 343.59521484 C-180.09769287 344.1567627 -180.81916504 344.71831055 -181.5625 345.296875 C-182.20316406 345.79541992 -182.84382813 346.29396484 -183.50390625 346.80761719 C-184.95885746 347.92143957 -184.95885746 347.92143957 -186 349 C-180.48677693 350.30312545 -174.95434299 351.39642071 -169.375 352.375 C-168.66037598 352.50052246 -167.94575195 352.62604492 -167.20947266 352.75537109 C-162.92520269 353.50265955 -158.63772961 354.22820785 -154.34765625 354.94140625 C-143.92883315 356.68639666 -133.63100837 358.51822144 -123.43798828 361.328125 C-121.59963192 361.83474995 -119.75906915 362.33337854 -117.91748047 362.828125 C-102.51827919 366.97736034 -87.60137444 371.56452018 -73 378 C-71.92564697 378.4630957 -71.92564697 378.4630957 -70.82958984 378.93554688 C-39.94825924 392.32713008 -10.52894169 413.28339037 9 441 C9.68570068 441.96196289 9.68570068 441.96196289 10.38525391 442.94335938 C38.10241209 482.29617865 44.82234429 532.09638301 38 579 C37.79213867 580.45805054 37.79213867 580.45805054 37.58007812 581.94555664 C32.85937365 613.92832944 23.62255343 643.23223267 10.4375 672.625 C10.00284424 673.60823242 9.56818848 674.59146484 9.12036133 675.60449219 C5.33787286 683.88612151 -0.21457648 696.0403725 -9 700 C-15.16521976 700.92190202 -20.77928811 700.93503659 -26.5625 698.5 C-34.64197149 690.21336258 -35.86358063 681.59356626 -36.1809082 670.26123047 C-36.77756289 652.35315659 -42.04254859 635.44327729 -51 620 C-51.56589844 618.99839844 -52.13179687 617.99679687 -52.71484375 616.96484375 C-63.10329504 599.58557584 -79.57996322 585.79713106 -96.05175781 574.36572266 C-98.80183582 572.43791108 -101.51398605 570.45950215 -104.22875977 568.48242188 C-120.62194444 556.55219883 -137.31176952 545.07022007 -154.21142578 533.87109375 C-162.35904605 528.45976367 -170.38254996 522.88710476 -178.375 517.25 C-182.05080028 514.6585608 -185.75148425 512.10677897 -189.4675293 509.57348633 C-219.43771893 489.13615701 -261.83044152 457.89770933 -270.67578125 420.11328125 C-270.83626953 419.06720703 -270.83626953 419.06720703 -271 418 C-264.15127219 417.77038049 -257.90117933 418.33719435 -251.20703125 419.7578125 C-250.30644485 419.94126221 -249.40585846 420.12471191 -248.47798157 420.3137207 C-245.58708646 420.90649821 -242.69972423 421.51461307 -239.8125 422.125 C-237.81429419 422.54152224 -235.81608453 422.95802607 -233.81787109 423.37451172 C-192.75545905 431.99474358 -152.7549719 444.43050502 -116 465 C-115.1219873 465.48984375 -114.24397461 465.9796875 -113.33935547 466.484375 C-82.78282132 483.67547786 -53.32628324 506.71232048 -31 534 C-32.51329998 528.57447563 -35.06068658 524.18321386 -38 519.4375 C-38.73259033 518.24930664 -38.73259033 518.24930664 -39.47998047 517.03710938 C-46.28975213 506.15730628 -54.15381306 496.30487812 -63 487 C-63.53802246 486.42411133 -64.07604492 485.84822266 -64.63037109 485.25488281 C-82.85341453 465.85214495 -104.07310666 451.46515658 -127.95849609 439.98828125 C-129.9990708 439.00044982 -132.02509637 437.9867115 -134.05078125 436.96875 C-144.25171846 431.91614183 -154.68007018 428.17968179 -165.53417969 424.77734375 C-167.7822881 424.06863314 -170.02090537 423.33690851 -172.2578125 422.59375 C-186.83424412 417.80230702 -201.77518581 414.91442872 -216.88232422 412.36328125 C-219.02958215 411.99492527 -221.17313162 411.60957959 -223.31640625 411.21875 C-231.43090757 409.74388642 -239.52192057 408.49902945 -247.70703125 407.47265625 C-250.440197 407.08035132 -253.01824626 406.56028417 -255.6875 405.875 C-266.0088651 403.45441719 -276.94301704 404.4314165 -286.12402344 409.84057617 C-287.24810452 410.56862311 -288.36805127 411.3030823 -289.484375 412.04296875 C-290.09105011 412.43920441 -290.69772522 412.83544006 -291.32278442 413.24368286 C-297.88904974 417.54799092 -304.38820883 421.9522133 -310.875 426.375 C-312.11182443 427.21641643 -313.34872311 428.05772373 -314.58569336 428.89892578 C-321.52805951 433.62252687 -328.46625857 438.35248671 -335.3737793 443.12695312 C-338.90323005 445.56612471 -342.44840923 447.97968675 -346.0078125 450.375 C-347.29836548 451.24729248 -347.29836548 451.24729248 -348.61499023 452.13720703 C-350.28074755 453.26246665 -351.94935903 454.3835174 -353.62133789 455.49951172 C-360.70130223 460.29374717 -365.90612069 464.87326552 -369 473 C-369.51734289 475.91113344 -369.53647067 478.73275132 -369.49879456 481.68406677 C-369.50417911 482.52168031 -369.50956366 483.35929385 -369.51511139 484.22228962 C-369.52831307 487.00974374 -369.51327517 489.79630623 -369.49829102 492.58374023 C-369.50211665 494.59000044 -369.50773778 496.59625789 -369.51501465 498.60250854 C-369.5269469 502.91372459 -369.52648997 507.22469701 -369.51642036 511.53591728 C-369.50083501 518.35672107 -369.51455486 525.17727555 -369.53245544 531.99806213 C-369.56325352 545.2470403 -369.5647775 558.49594199 -369.56280518 571.74494934 C-369.5614117 588.60560377 -369.57178822 605.46619933 -369.6113829 622.32681042 C-369.62629872 629.10334325 -369.62605959 635.87965461 -369.61390507 642.65619075 C-369.60918691 646.87618721 -369.61672513 651.09609928 -369.62744904 655.316082 C-369.62985059 657.26834106 -369.62713609 659.22061437 -369.61884117 661.17285728 C-369.60816872 663.84510973 -369.61601029 666.51671728 -369.62818909 669.18894958 C-369.62061303 669.95492145 -369.61303698 670.72089332 -369.60523134 671.51007646 C-369.67041609 678.29067403 -371.00715534 684.52240935 -375.3125 689.875 C-383.46644865 696.32230824 -391.62527732 696.15091487 -401.56982422 696.16113281 C-402.7282785 696.16609772 -403.88673279 696.17106262 -405.08029175 696.17617798 C-408.90509641 696.19075981 -412.72985963 696.19759429 -416.5546875 696.203125 C-418.54416602 696.20742408 -420.53364455 696.21172371 -422.52312291 696.2160995 C-428.06388371 696.22789208 -433.60463453 696.23544158 -439.1454066 696.2388947 C-446.29375365 696.24337532 -453.44190947 696.26093135 -460.5901984 696.2898953 C-466.129256 696.31155435 -471.66825996 696.32160117 -477.20735943 696.32293582 C-480.50967177 696.32398054 -483.81176359 696.33127874 -487.11404037 696.34775543 C-490.7999695 696.36483673 -494.48543391 696.36293045 -498.17138672 696.35644531 C-499.79723694 696.37026749 -499.79723694 696.37026749 -501.45593262 696.3843689 C-508.89844706 696.34341289 -514.21486573 695.15064447 -520.75 691.4375 C-527.49423545 684.13124493 -527.58486806 674.94535019 -527.375 665.5 C-527.35775879 664.25605469 -527.34051758 663.01210938 -527.32275391 661.73046875 C-526.18063348 602.67747687 -501.98121976 538.46884635 -461.16015625 495.30078125 C-459.36439628 493.38811828 -457.65880851 491.44083786 -455.953125 489.44921875 C-451.57353355 484.42500197 -446.89323698 479.707157 -442.18237305 474.99707031 C-440.66750914 473.47997975 -439.16087408 471.95500263 -437.65429688 470.4296875 C-436.690592 469.46305507 -435.72641702 468.49689103 -434.76171875 467.53125 C-433.89506592 466.66048828 -433.02841309 465.78972656 -432.13549805 464.89257812 C-430 463 -430 463 -428 463 C-428 462.34 -428 461.68 -428 461 C-426.0859375 459.22265625 -426.0859375 459.22265625 -423.375 457.0625 C-422.36566406 456.25554687 -421.35632813 455.44859375 -420.31640625 454.6171875 C-419.21107892 453.74461249 -418.10560778 452.87221963 -417 452 C-415.90475108 451.12785129 -414.8097003 450.25545372 -413.71484375 449.3828125 C-400.44542076 438.84657498 -386.8480896 428.76056844 -373 419 C-372.30551758 418.50870605 -371.61103516 418.01741211 -370.89550781 417.51123047 C-357.37318481 407.95091851 -343.68233418 398.64675242 -329.96855164 389.36480713 C-309.68347375 375.63345851 -289.65789612 361.61751755 -270 347 C-269.28392578 346.46842285 -268.56785156 345.9368457 -267.83007812 345.38916016 C-259.02094952 338.8438873 -250.32395401 332.17405358 -241.72216797 325.35888672 C-239.97823475 323.982826 -238.22673402 322.61700614 -236.47265625 321.25390625 C-229.54345789 315.8617683 -222.76896369 310.32823397 -216.09375 304.625 C-213.2044868 302.16084036 -210.26481542 299.76339 -207.3125 297.375 C-202.85808887 293.74931653 -198.57051399 289.97570347 -194.32421875 286.109375 C-192.27957665 284.25373343 -190.21215851 282.43243624 -188.125 280.625 C-183.73253912 276.79590084 -179.44318372 272.85662154 -175.16015625 268.90625 C-173.17956299 267.07968275 -171.18766873 265.26991587 -169.18359375 263.46875 C-161.43897872 256.45631562 -154.01951815 249.1276376 -146.625 241.75 C-146.10280884 241.23039703 -145.58061768 240.71079407 -145.04260254 240.17544556 C-139.69528217 234.84903121 -134.42586612 229.50034343 -129.51611328 223.76123047 C-127.1338959 220.99386877 -124.62261542 218.35027828 -122.125 215.6875 C-117.64382741 210.87032678 -113.38752512 205.93138268 -109.26953125 200.796875 C-107.22718461 198.27997278 -105.13616199 195.82072552 -103.01782227 193.3684082 C-87.99652158 175.91420974 -75.82376881 156.81679076 -66 136 C-65.66419922 135.29020996 -65.32839844 134.58041992 -64.98242188 133.84912109 C-62.96601611 129.5762157 -60.97369579 125.29278834 -59 121 C-62.89575689 124.8450686 -66.65451684 128.79806357 -70.375 132.8125 C-70.91382813 133.39064453 -71.45265625 133.96878906 -72.0078125 134.56445312 C-74.87189632 137.65016248 -77.6849736 140.77024658 -80.4453125 143.94921875 C-84.02872649 148.06473947 -87.74572223 152.04052892 -91.5 156 C-92.76067117 157.3330927 -94.02107347 158.6664397 -95.28125 160 C-96.00368896 160.76256104 -96.72612793 161.52512207 -97.47045898 162.31079102 C-99.32929195 164.28695597 -101.17650399 166.27127632 -103.01586914 168.26538086 C-113.78894215 179.90770422 -124.97382917 191.12823705 -136.19995117 202.33032227 C-138.9184028 205.04301947 -141.63225793 207.76026436 -144.34486294 210.4788065 C-146.46818048 212.60575712 -148.59389768 214.73029668 -150.72032356 216.85413933 C-151.72203639 217.85519349 -152.72303047 218.85696749 -153.72323418 219.8595295 C-158.80423867 224.94990967 -163.91240547 229.93927108 -169.38697815 234.60716248 C-171.5381686 236.4647063 -173.52169131 238.46082027 -175.5 240.5 C-178.76384913 243.80263851 -182.1141419 246.90050648 -185.63671875 249.921875 C-188.81704127 252.71845612 -191.90474452 255.60992784 -195 258.5 C-199.92611869 263.09096473 -204.88276888 267.62171923 -210 272 C-211.03394678 272.88791299 -212.06779133 273.77594505 -213.1015625 274.6640625 C-216.11472731 277.25079186 -219.13154507 279.83322995 -222.14892578 282.41503906 C-223.95341852 283.96011515 -225.75631496 285.50702979 -227.55859375 287.0546875 C-249.97255357 306.30003499 -249.97255357 306.30003499 -261 315 C-262.19684306 315.95544303 -263.39344075 316.91119348 -264.58984375 317.8671875 C-265.85136544 318.8700396 -267.11308331 319.87264497 -268.375 320.875 C-268.97046631 321.35195313 -269.56593262 321.82890625 -270.17944336 322.3203125 C-272.99898923 324.55000025 -275.68376389 326.57875595 -279 328 C-278.69854531 314.2385932 -277.11678949 301.0804289 -274.49658203 287.57080078 C-274.0617068 285.31945555 -273.6484179 283.06592554 -273.24609375 280.80859375 C-271.48582403 271.32325465 -268.8890524 262.18729615 -266 253 C-265.72559082 252.10635742 -265.45118164 251.21271484 -265.16845703 250.29199219 C-254.50731977 215.74495703 -237.87606167 183.73075754 -216 155 C-215.54238281 154.38995117 -215.08476563 153.77990234 -214.61328125 153.15136719 C-207.54742511 143.79455069 -199.64233161 135.35448634 -191.375 127.0625 C-190.89389771 126.5778125 -190.41279541 126.093125 -189.91711426 125.59375 C-183.28445599 118.9345136 -176.38701543 112.80818255 -169 107 C-168.32114746 106.46173584 -167.64229492 105.92347168 -166.94287109 105.36889648 C-146.78380432 89.55092265 -124.68421058 77.00612287 -101.55249023 66.11181641 C-88.08468703 59.73144041 -75.19748357 52.58401994 -63 44 C-62.45956055 43.62407715 -61.91912109 43.2481543 -61.36230469 42.86083984 C-49.44835971 34.56859837 -38.05570302 25.73978871 -27.125 16.1875 C-8.57701864 0 -8.57701864 0 0 0 Z " fill="#01B18D" transform="translate(756,162)"/>
<path d="M0 0 C1.22731339 -0.0071553 2.45462677 -0.01431061 3.71913147 -0.02168274 C7.05631403 -0.03560847 10.39192555 -0.02735341 13.72897768 -0.00759244 C17.23659331 0.00890789 20.7441623 -0.00003419 24.25180054 -0.00511169 C30.13756079 -0.00961887 36.02300179 0.00615402 41.90869141 0.03417969 C48.69696366 0.06625549 55.48466143 0.06619999 62.27297461 0.04896492 C68.82763861 0.03306167 75.38209357 0.03985574 81.9367485 0.05690193 C84.71569821 0.06374396 87.4944789 0.06276964 90.27342606 0.05535698 C94.15776461 0.046222 98.04152043 0.07031119 101.92578125 0.09765625 C103.06885239 0.09113037 104.21192352 0.08460449 105.38963318 0.07788086 C112.60284077 0.16405157 118.31710753 1.08191903 123.85094643 5.97203732 C130.24821865 12.90659728 129.62737728 21.33190828 129.61437988 30.1743927 C129.62032213 31.43921925 129.62626437 32.7040458 129.63238668 34.00720042 C129.64846023 37.50658323 129.65210208 41.00588385 129.65358162 44.50529921 C129.65729426 48.28388438 129.67239447 52.06242747 129.68585205 55.84098816 C129.71297012 64.09717425 129.72505988 72.35334086 129.73387337 80.60956407 C129.73940517 85.76714058 129.74788101 90.92470964 129.75688171 96.08228111 C129.78125828 110.36979736 129.80186022 124.65730765 129.8086319 138.94484425 C129.8092906 140.31539128 129.8092906 140.31539128 129.8099626 141.71362613 C129.81061743 143.08739 129.81061743 143.08739 129.8112855 144.48890668 C129.81217242 146.34465524 129.81306555 148.20040379 129.81396484 150.05615234 C129.8144077 150.97666131 129.81485056 151.89717027 129.81530684 152.84557345 C129.82320402 167.76320609 129.85811953 182.68064341 129.90468389 197.5982006 C129.95213463 212.92370645 129.97703659 228.24911432 129.97936773 243.57469481 C129.98119968 252.17557943 129.99266501 260.77620934 130.02900696 269.3770237 C130.05984086 276.69988189 130.07003129 284.02240662 130.05353075 291.3453174 C130.04572919 295.07942263 130.04751803 298.81285665 130.07564545 302.54687881 C130.10590185 306.60068913 130.08935798 310.65299417 130.06848145 314.7068634 C130.09265066 316.46529948 130.09265066 316.46529948 130.11730814 318.25925952 C130.01302108 326.92720855 127.66397404 333.22214922 121.52607965 339.47127372 C119.85819764 340.96616803 118.13986054 342.30772687 116.33349609 343.63110352 C115.77162598 344.05810547 115.20975586 344.48510742 114.63085938 344.92504883 C112.90096004 346.22408844 111.15194648 347.49254236 109.39599609 348.75610352 C108.07654118 349.71643059 106.75754651 350.67739028 105.43896484 351.63891602 C104.76397949 352.13037109 104.08899414 352.62182617 103.39355469 353.12817383 C93.74942674 360.16411263 84.31500876 367.3311683 75.27099609 375.12719727 C72.71392558 377.30682785 70.11391432 379.38652788 67.45849609 381.44360352 C61.59965066 386.07706951 56.2450883 391.24253954 50.81787109 396.36547852 C48.24817755 398.78739416 45.64156297 401.14689827 42.95849609 403.44360352 C35.81828482 409.60803755 29.45145921 416.46948787 23.33349609 423.63110352 C22.44111407 424.64877407 21.54780912 425.66563573 20.65380859 426.68188477 C7.34435045 441.88197869 -3.88954333 458.26006021 -15.01367188 475.09326172 C-15.71344398 476.15175323 -15.71344398 476.15175323 -16.42735291 477.23162842 C-17.30373728 478.55861661 -18.17880971 479.88647266 -19.05226135 481.21539307 C-21.82966134 485.42568236 -24.65963001 489.58042458 -27.66650391 493.63110352 C-27.99650391 493.63110352 -28.32650391 493.63110352 -28.66650391 493.63110352 C-28.70074175 448.75911316 -28.73258284 403.88712135 -28.75119019 359.01512146 C-28.7514663 358.35096785 -28.75174241 357.68681425 -28.7520269 357.00253477 C-28.75801276 342.56857665 -28.76355311 328.13461838 -28.76863457 313.7006599 C-28.77112923 306.62221725 -28.77372234 299.54377463 -28.77636719 292.46533203 C-28.77662871 291.76094311 -28.77689022 291.05655419 -28.77715967 290.33082015 C-28.78568187 267.50086882 -28.80070413 244.67092739 -28.81909835 221.84098205 C-28.8385019 197.71447342 -28.85049642 173.587971 -28.8546809 149.46145481 C-28.85742713 135.00805869 -28.86610557 120.554691 -28.88233684 106.10130363 C-28.89289669 96.1943574 -28.89610679 86.2874259 -28.89350666 76.38047446 C-28.89222382 70.66201254 -28.89421085 64.94360035 -28.90491486 59.22514725 C-28.91464309 53.98980343 -28.91514152 48.75454283 -28.9083017 43.51919519 C-28.90745625 41.62537163 -28.90999689 39.73154288 -28.91627027 37.83772952 C-28.92430726 35.26169597 -28.91996324 32.68596199 -28.91259956 30.1099329 C-28.91785359 29.37632497 -28.92310762 28.64271705 -28.92852086 27.88687858 C-28.88008624 20.37802882 -27.95205786 11.39034018 -22.66650391 5.63110352 C-15.43480952 0.57433526 -8.60973321 -0.08837991 0 0 Z " fill="#00B7D6" transform="translate(256.66650390625,204.368896484375)"/>
<path d="M0 0 C0.33 0.66 0.66 1.32 1 2 C-1.16064982 7.45848375 -1.16064982 7.45848375 -3.9375 9.25 C-4.618125 9.4975 -5.29875 9.745 -6 10 C-7.33772222 10.6578157 -8.67169558 11.32336894 -10 12 C-9.61328125 11.55269531 -9.2265625 11.10539062 -8.828125 10.64453125 C-5.81609925 7.1478974 -2.85678969 3.62592537 0 0 Z " fill="#D2F1EA" transform="translate(697,281)"/>
</svg>
