<svg width="73" height="97" viewBox="0 0 73 97" fill="none" xmlns="http://www.w3.org/2000/svg">
<path d="M48.2909 82.7512C49.3539 83.0369 49.9847 84.1329 49.7005 85.2016C49.4163 86.2702 48.326 86.9043 47.263 86.6186L46.2311 86.3407C45.1681 86.0549 44.5374 84.9589 44.8216 83.8903C45.1057 82.8217 46.1961 82.1876 47.259 82.4733L48.2909 82.7512ZM39.9466 10.8993C40.0206 10.3747 40.1257 9.86192 40.2542 9.3688C41.1498 5.99852 43.3263 3.31325 46.1104 1.6967L46.235 1.63016C48.9996 0.0644153 52.3521 -0.456164 55.6501 0.432378C59.0027 1.33659 61.6738 3.52078 63.2819 6.31958L63.3481 6.44484C64.9056 9.224 65.4234 12.5943 64.5396 15.9098C64.4033 16.4225 64.2358 16.9196 64.0451 17.3933C65.8246 19.1157 67.347 21.0768 68.5735 23.2101C71.9027 29.0112 73.0475 36.0808 71.1979 43.0171L65.365 64.8985C65.1236 65.8066 65.1937 66.7265 65.5325 67.5172C65.8673 68.3079 66.4747 68.9969 67.2924 69.447C69.4807 70.6565 71.1628 72.5746 72.1129 74.8175C73.0474 77.0135 73.2849 79.5265 72.6268 82.0004C71.8442 84.9323 69.9324 87.2848 67.491 88.7018C65.0535 90.1188 62.0748 90.6041 59.1583 89.8174L55.7512 88.8975C54.5831 91.6023 52.5895 93.7709 50.1597 95.184C47.1888 96.9141 43.5598 97.5013 39.9854 96.5384C36.4187 95.5754 33.5645 93.2463 31.8473 90.2559C30.4416 87.8133 29.7953 84.9284 30.1301 81.9965L8.14958 76.0781C5.23313 75.2913 2.89303 73.3694 1.48345 70.9151C0.0738638 68.4647 -0.408889 65.4702 0.373703 62.5383C1.03175 60.0684 2.49191 58.0094 4.39601 56.5728C6.33121 55.1128 8.74148 54.2986 11.2335 54.3494C12.1719 54.369 13.0402 54.0754 13.7255 53.5587C14.4069 53.042 14.9248 52.2866 15.1662 51.3745L20.9991 29.4932C22.8487 22.5569 27.3537 17.0063 33.1203 13.6594C35.2462 12.4263 37.5475 11.4869 39.9461 10.8919L39.9466 10.8993ZM60.7389 14.6844C61.2763 12.4807 60.9181 10.2572 59.894 8.42144L59.8356 8.3275C58.7375 6.41734 56.9114 4.92204 54.6179 4.30356C52.3634 3.69683 50.0778 4.04521 48.1971 5.106L48.1036 5.16471C46.2541 6.23724 44.7978 8.0065 44.1554 10.2221C47.0018 9.99897 49.9221 10.2495 52.8229 11.0324C55.7277 11.8152 58.3832 13.0678 60.7389 14.6922V14.6844ZM34.0355 83.0561C33.9421 84.9116 34.3976 86.7121 35.2854 88.2583C36.4886 90.3603 38.4939 91.9965 41.0132 92.6776C43.5285 93.3548 46.0828 92.9438 48.166 91.7343C50.2453 90.5326 51.8651 88.5323 52.5465 86.0232C52.8385 84.9272 53.8587 84.2813 54.9995 84.5554L60.186 85.9528C62.0511 86.4538 63.9551 86.1446 65.5127 85.2443C67.0664 84.344 68.2812 82.8448 68.7796 80.9698C69.2001 79.3924 69.0482 77.7874 68.4525 76.3861C67.8451 74.9535 66.7704 73.7283 65.3765 72.9571C63.7528 72.0608 62.5496 70.6829 61.8721 69.0858C61.1946 67.4848 61.0427 65.6607 61.5178 63.8641L67.3507 41.9827C68.9159 36.1073 67.9503 30.1222 65.1312 25.214C62.3121 20.3015 57.6357 16.4654 51.7949 14.8916C45.9504 13.318 39.9967 14.2888 35.1144 17.1228C30.2277 19.9568 26.4118 24.6579 24.8463 30.5296L19.0134 52.411C18.5383 54.2038 17.4948 55.7069 16.1047 56.7559C14.7224 57.7971 12.9975 58.3803 11.1518 58.3451C9.55918 58.3137 8.01732 58.8344 6.7752 59.7699C5.56817 60.682 4.63755 61.9933 4.217 63.5747C3.7186 65.4497 4.0262 67.3637 4.92177 68.9296C5.81734 70.4914 7.30862 71.7127 9.17374 72.2137L32.8867 78.6019L32.9374 78.6137L40.5419 80.6609C41.6049 80.9467 42.2357 82.0427 41.9515 83.1113C41.6673 84.1799 40.577 84.814 39.514 84.5283L34.0354 83.0526L34.0355 83.0561Z" fill="#8D99AE"/>
</svg>
