<svg width="19" height="20" viewBox="0 0 19 20" fill="none" xmlns="http://www.w3.org/2000/svg">
<path d="M2.77386 4.25C6.66436 2.99386 11.2225 2.70573 13.2501 2.75C15.2777 2.79428 16.1332 3.5163 16.7501 4.75C17.7501 6.75 17.5391 11.7381 15.7501 13.3371C13.9621 14.9361 6.58024 15.0881 4.12024 13.3371C1.52124 11.4861 2.87909 6.442 2.79409 2.993C2.84509 1.063 0.750092 0.75 0.750092 0.75" stroke="#5C6B73" stroke-width="1.5" stroke-linecap="round" stroke-linejoin="round"/>
<path d="M10.2501 7.75H13.0231" stroke="#5C6B73" stroke-width="1.5" stroke-linecap="round" stroke-linejoin="round"/>
<path fill-rule="evenodd" clip-rule="evenodd" d="M4.51384 17.3774C4.81384 17.3774 5.05784 17.6214 5.05784 17.9214C5.05784 18.2224 4.81384 18.4664 4.51384 18.4664C4.21284 18.4664 3.96884 18.2224 3.96884 17.9214C3.96884 17.6214 4.21284 17.3774 4.51384 17.3774Z" fill="#E1ECF7" stroke="#5C6B73" stroke-width="1.5" stroke-linecap="round" stroke-linejoin="round"/>
<path fill-rule="evenodd" clip-rule="evenodd" d="M14.8454 17.3774C15.1464 17.3774 15.3904 17.6214 15.3904 17.9214C15.3904 18.2224 15.1464 18.4664 14.8454 18.4664C14.5454 18.4664 14.3014 18.2224 14.3014 17.9214C14.3014 17.6214 14.5454 17.3774 14.8454 17.3774Z" fill="#E1ECF7" stroke="#5C6B73" stroke-width="1.5" stroke-linecap="round" stroke-linejoin="round"/>
</svg>
