<svg width="17" height="17" viewBox="0 0 17 17" fill="none" xmlns="http://www.w3.org/2000/svg">
<path fill-rule="evenodd" clip-rule="evenodd" d="M16.8333 6.42863C16.4892 4.96487 14.9617 4.88928 13.7339 4.82792C12.9612 4.78879 12.1619 4.74966 11.8276 4.40373C11.4871 4.05157 11.2213 3.37661 10.9626 2.72387C10.4584 1.44686 9.88675 0 8.4473 0C7.00873 0 6.43796 1.44686 5.93295 2.72387C5.67511 3.37661 5.40838 4.05157 5.06875 4.40373C4.73356 4.74966 3.93426 4.78879 3.16163 4.82792C1.93378 4.88928 0.406313 4.96487 0.0622315 6.42863C-0.264068 7.8177 0.755728 8.65807 1.6555 9.39973C2.27075 9.90663 2.85222 10.3868 2.98114 10.9738C3.10651 11.5438 2.91802 12.2801 2.73575 12.9933C2.42279 14.2196 2.06715 15.6087 3.2541 16.5042C3.62485 16.7843 4.00094 16.8955 4.37258 16.8955C5.17722 16.8955 5.9614 16.3762 6.63264 15.9315C7.25412 15.5207 7.89694 15.0947 8.4473 15.0947C8.99765 15.0947 9.64135 15.5207 10.2619 15.9315C11.2444 16.5816 12.466 17.3891 13.6423 16.5042C14.8292 15.6087 14.4736 14.2188 14.1598 12.9916C13.9775 12.2792 13.7899 11.5429 13.9144 10.9738C14.0433 10.3868 14.6248 9.90751 15.24 9.39973C16.1398 8.65807 17.1596 7.8177 16.8333 6.42863Z" fill="#FF8D28"/>
</svg>
