<svg width="10" height="10" viewBox="0 0 10 10" fill="none" xmlns="http://www.w3.org/2000/svg">
<path fill-rule="evenodd" clip-rule="evenodd" d="M5.4032 0.688601L6.31691 2.51398C6.40646 2.69318 6.57931 2.81743 6.77975 2.84619L8.82374 3.14041C9.32875 3.21332 9.52972 3.82537 9.16423 4.17607L7.68617 5.59632C7.54091 5.73598 7.47479 5.93675 7.50915 6.13392L7.85797 8.13901C7.94388 8.63501 7.41596 9.01344 6.96457 8.77879L5.13768 7.83144C4.95858 7.7385 4.74408 7.7385 4.56447 7.83144L2.73758 8.77879C2.28619 9.01344 1.75827 8.63501 1.8447 8.13901L2.193 6.13392C2.22736 5.93675 2.16124 5.73598 2.01598 5.59632L0.537914 4.17607C0.172432 3.82537 0.373395 3.21332 0.878406 3.14041L2.9224 2.84619C3.12284 2.81743 3.29621 2.69318 3.38576 2.51398L4.29895 0.688601C4.5249 0.237263 5.17725 0.237263 5.4032 0.688601Z" stroke="#8D99AE" stroke-width="0.7" stroke-linecap="round" stroke-linejoin="round"/>
</svg>
