<svg width="13" height="13" viewBox="0 0 13 13" fill="none" xmlns="http://www.w3.org/2000/svg">
<path fill-rule="evenodd" clip-rule="evenodd" d="M6.10988 0C9.47881 0 12.2191 2.74032 12.2191 6.10925C12.2191 7.6987 11.6092 9.14836 10.611 10.2363L12.5751 12.1964C12.7589 12.3802 12.7595 12.6775 12.5757 12.8614C12.4841 12.9542 12.363 13 12.2426 13C12.1228 13 12.0023 12.9542 11.9101 12.8626L9.92227 10.8803C8.87659 11.7178 7.55072 12.2191 6.10988 12.2191C2.74094 12.2191 0 9.47818 0 6.10925C0 2.74032 2.74094 0 6.10988 0ZM6.10988 0.941042C3.25977 0.941042 0.941042 3.25914 0.941042 6.10925C0.941042 8.95935 3.25977 11.2781 6.10988 11.2781C8.95935 11.2781 11.2781 8.95935 11.2781 6.10925C11.2781 3.25914 8.95935 0.941042 6.10988 0.941042Z" fill="#8D99AE"/>
</svg>
