<svg width="18" height="19" viewBox="0 0 18 19" fill="none" xmlns="http://www.w3.org/2000/svg">
<path fill-rule="evenodd" clip-rule="evenodd" d="M16.5173 5.55851L15.9574 4.58693C15.4837 3.76482 14.434 3.48121 13.6108 3.95293C13.2189 4.18377 12.7513 4.24927 12.3111 4.13497C11.8709 4.02067 11.4942 3.73596 11.2642 3.34363C11.1162 3.09426 11.0366 2.81023 11.0336 2.52026C11.047 2.05536 10.8716 1.60485 10.5474 1.27137C10.2232 0.937878 9.77785 0.749809 9.31276 0.75H8.18474C7.72909 0.75 7.29223 0.931561 6.97081 1.25452C6.6494 1.57748 6.46993 2.01521 6.47212 2.47085C6.45861 3.41159 5.6921 4.1671 4.75126 4.16701C4.46129 4.16399 4.17726 4.08447 3.92789 3.93646C3.10466 3.46475 2.05494 3.74835 1.58127 4.57046L0.980207 5.55851C0.507108 6.37959 0.786855 7.42864 1.60597 7.90513C2.13841 8.21253 2.46641 8.78063 2.46641 9.39544C2.46641 10.0102 2.13841 10.5783 1.60597 10.8857C0.787895 11.359 0.507843 12.4055 0.980207 13.2241L1.54834 14.2039C1.77027 14.6044 2.14264 14.8999 2.58304 15.0251C3.02345 15.1502 3.49558 15.0948 3.89495 14.8709C4.28757 14.6418 4.75542 14.579 5.19453 14.6965C5.63364 14.814 6.00762 15.1021 6.23334 15.4966C6.38134 15.746 6.46087 16.03 6.46388 16.32C6.46388 17.2704 7.23434 18.0409 8.18474 18.0409H9.31276C10.26 18.0409 11.0291 17.2754 11.0336 16.3283C11.0314 15.8712 11.212 15.4322 11.5352 15.109C11.8584 14.7858 12.2974 14.6052 12.7545 14.6074C13.0437 14.6151 13.3266 14.6943 13.5778 14.8379C14.3989 15.311 15.448 15.0313 15.9245 14.2122L16.5173 13.2241C16.7468 12.8303 16.8097 12.3612 16.6923 11.9207C16.5748 11.4803 16.2866 11.1048 15.8915 10.8775C15.4964 10.6502 15.2082 10.2747 15.0908 9.8343C14.9733 9.39386 15.0363 8.92476 15.2658 8.53089C15.415 8.27036 15.631 8.05435 15.8915 7.90513C16.7057 7.4289 16.9848 6.38597 16.5173 5.56674V5.55851Z" stroke="#5C6B73" stroke-width="1.5" stroke-linecap="round" stroke-linejoin="round"/>
<path opacity="0.4" d="M8.75267 11.7671C10.0623 11.7671 11.124 10.7054 11.124 9.39573C11.124 8.08609 10.0623 7.02441 8.75267 7.02441C7.44302 7.02441 6.38135 8.08609 6.38135 9.39573C6.38135 10.7054 7.44302 11.7671 8.75267 11.7671Z" stroke="#5C6B73" stroke-width="1.5" stroke-linecap="round" stroke-linejoin="round"/>
</svg>
