<svg width="14" height="11" viewBox="0 0 14 11" fill="none" xmlns="http://www.w3.org/2000/svg">
<path fill-rule="evenodd" clip-rule="evenodd" d="M6.83206 0C9.65702 0.00204905 12.1937 1.98212 13.6185 5.29749C13.6745 5.42658 13.6745 5.57274 13.6185 5.70183C12.1944 9.01788 9.65702 10.998 6.83206 11H6.82796C4.003 10.998 1.46627 9.01788 0.0414933 5.70183C-0.0138311 5.57274 -0.0138311 5.42658 0.0414933 5.29749C1.46627 1.98212 4.00368 0.00204905 6.82796 0H6.83206ZM6.83001 1.02453C4.48316 1.02521 2.34258 2.69382 1.07217 5.49966C2.34258 8.30618 4.48247 9.97479 6.83001 9.97547C9.17754 9.97479 11.3174 8.30618 12.5878 5.49966C11.3174 2.69382 9.17754 1.02521 6.83001 1.02453ZM6.8298 2.82824C8.30307 2.82824 9.50177 4.02694 9.50177 5.50021C9.50177 6.97279 8.30307 8.1708 6.8298 8.1708C5.35653 8.1708 4.15852 6.97279 4.15852 5.50021C4.15852 4.02694 5.35653 2.82824 6.8298 2.82824ZM6.8298 3.85277C5.92139 3.85277 5.18305 4.59179 5.18305 5.50021C5.18305 6.40794 5.92139 7.14628 6.8298 7.14628C7.73821 7.14628 8.47724 6.40794 8.47724 5.50021C8.47724 4.59179 7.73821 3.85277 6.8298 3.85277Z" fill="#5C6B73"/>
</svg>
