<svg width="17" height="16" viewBox="0 0 17 16" fill="none" xmlns="http://www.w3.org/2000/svg">
<path fill-rule="evenodd" clip-rule="evenodd" d="M8.30191 1.27723C8.22442 1.27723 8.03369 1.29852 7.93236 1.50117L6.37755 4.60994C6.13147 5.10125 5.6572 5.44269 5.10884 5.52103L1.62797 6.02256C1.39807 6.05576 1.31973 6.22606 1.29589 6.29759C1.2746 6.36656 1.24054 6.54196 1.39892 6.69353L3.91591 9.11174C4.31696 9.49747 4.49918 10.0535 4.40381 10.5976L3.81118 14.012C3.77456 14.2258 3.90825 14.3501 3.96785 14.3927C4.03086 14.4403 4.19945 14.5349 4.40807 14.4259L7.52025 12.8123C8.0107 12.5594 8.59482 12.5594 9.08357 12.8123L12.1949 14.425C12.4044 14.5332 12.573 14.4386 12.6368 14.3927C12.6964 14.3501 12.8301 14.2258 12.7935 14.012L12.1992 10.5976C12.1038 10.0535 12.286 9.49747 12.6871 9.11174L15.204 6.69353C15.3633 6.54196 15.3292 6.3657 15.3071 6.29759C15.2841 6.22606 15.2058 6.05576 14.9758 6.02256L11.495 5.52103C10.9475 5.44269 10.4732 5.10125 10.2271 4.60909L8.6706 1.50117C8.57013 1.29852 8.37939 1.27723 8.30191 1.27723ZM4.21223 15.7525C3.86056 15.7525 3.51145 15.6418 3.21258 15.4238C2.69658 15.0457 2.44369 14.4216 2.55353 13.7932L3.14617 10.3788C3.16831 10.2519 3.12488 10.1233 3.03122 10.0331L0.514226 7.61483C0.0510177 7.17121 -0.115022 6.51557 0.0808196 5.90675C0.278364 5.29113 0.801176 4.85091 1.44575 4.75895L4.92662 4.25743C5.06116 4.23869 5.17696 4.1561 5.23486 4.03859L6.79052 0.928971C7.07747 0.355921 7.65648 0 8.30191 0C8.94734 0 9.52634 0.355921 9.8133 0.928971L11.3698 4.03774C11.4286 4.1561 11.5435 4.23869 11.6772 4.25743L15.1581 4.75895C15.8026 4.85091 16.3255 5.29113 16.523 5.90675C16.7188 6.51557 16.552 7.17121 16.0887 7.61483L13.5718 10.0331C13.4781 10.1233 13.4355 10.2519 13.4577 10.3779L14.0511 13.7932C14.1601 14.4225 13.9072 15.0466 13.3904 15.4238C12.8667 15.8078 12.1847 15.8598 11.6065 15.5583L8.49605 13.9465C8.37428 13.8835 8.22868 13.8835 8.10692 13.9465L4.99644 15.5592C4.74781 15.6886 4.47959 15.7525 4.21223 15.7525Z" fill="#5C6B73"/>
</svg>
