<svg width="19" height="20" viewBox="0 0 19 20" fill="none" xmlns="http://www.w3.org/2000/svg">
<path fill-rule="evenodd" clip-rule="evenodd" d="M8.75952 7.22607C9.17372 7.22607 9.50952 7.56186 9.50952 7.97607V14.0171C9.50952 14.4313 9.17372 14.7671 8.75952 14.7671C8.34532 14.7671 8.00952 14.4313 8.00952 14.0171V7.97607C8.00952 7.56186 8.34532 7.22607 8.75952 7.22607Z" fill="#01B091"/>
<path fill-rule="evenodd" clip-rule="evenodd" d="M2.03062 2.27249C3.56246 0.58293 5.93834 0 9.13995 0C10.0666 0 10.9214 0.0514201 11.6917 0.15694C11.8478 0.17831 11.9931 0.24827 12.1072 0.35689L17.7773 5.7569C17.8924 5.86656 17.9696 6.00998 17.998 6.16645C18.1983 7.27377 18.2899 8.55109 18.2899 9.99999C18.2899 13.4998 17.7712 16.0653 16.2577 17.7318C14.7243 19.42 12.3456 20 9.13995 20C5.93907 20 3.56293 19.4199 2.03084 17.7315C0.51872 16.0652 0 13.4999 0 9.99999C0 6.5048 0.51883 3.93992 2.03062 2.27249ZM3.14187 3.28001C2.03116 4.50508 1.5 6.56519 1.5 9.99999C1.5 13.4401 2.03128 15.4999 3.14166 16.7235C4.23207 17.9251 6.05092 18.5 9.13995 18.5C12.2344 18.5 14.0557 17.925 15.1474 16.7232C16.2586 15.4997 16.7899 13.4402 16.7899 9.99999C16.7899 8.71849 16.715 7.61383 16.5627 6.67165L11.2509 1.61282C10.62 1.53823 9.91475 1.5 9.13995 1.5C6.05166 1.5 4.23253 2.07707 3.14187 3.28001Z" fill="#01B091"/>
<path fill-rule="evenodd" clip-rule="evenodd" d="M11.0339 0.0825195C11.4481 0.0825195 11.7839 0.41831 11.7839 0.83252V3.49352C11.7839 4.93702 12.9538 6.10652 14.3979 6.10652H17.3489C17.7631 6.10652 18.0989 6.44231 18.0989 6.85652C18.0989 7.27073 17.7631 7.60652 17.3489 7.60652H14.3979C12.126 7.60652 10.2839 5.76603 10.2839 3.49352V0.83252C10.2839 0.41831 10.6197 0.0825195 11.0339 0.0825195Z" fill="#01B091"/>
<path fill-rule="evenodd" clip-rule="evenodd" d="M8.75975 7.22656C8.95925 7.22656 9.15055 7.30602 9.29125 7.44736L11.6363 9.80234C11.9286 10.0958 11.9276 10.5707 11.634 10.863C11.3405 11.1553 10.8657 11.1542 10.5734 10.8607L8.75975 9.03944L6.94625 10.8607C6.65398 11.1542 6.17911 11.1553 5.88559 10.863C5.59208 10.5707 5.59106 10.0958 5.88333 9.80234L8.22835 7.44736C8.36905 7.30602 8.56035 7.22656 8.75975 7.22656Z" fill="#01B091"/>
</svg>
